<svg width="130" height="45" viewBox="0 0 130 45" fill="none" xmlns="http://www.w3.org/2000/svg">
<g clip-path="url(#clip0_1_489)">
<path d="M81.7674 44.9997C80.8983 44.9997 80.0648 44.6386 79.4503 43.9958C78.8357 43.353 78.4905 42.4811 78.4905 41.5721V30.004C78.4886 27.4732 79.0991 24.9831 80.2651 22.7656C81.4311 20.5481 83.1148 18.6753 85.1591 17.3217C87.2035 15.9682 89.5421 15.1778 91.9572 15.0242C94.3723 14.8707 96.7853 15.3589 98.9713 16.4436C99.7375 16.8444 100.323 17.5431 100.603 18.39C100.883 19.237 100.834 20.1648 100.468 20.9748C100.101 21.7848 99.4465 22.4126 98.6431 22.7236C97.8397 23.0347 96.9518 23.0043 96.1695 22.6389C94.9823 22.0483 93.6713 21.782 92.359 21.8647C91.0467 21.9474 89.7758 22.3765 88.6649 23.1119C87.554 23.8473 86.6393 24.8651 86.0062 26.0703C85.3731 27.2755 85.0422 28.6288 85.0444 30.004V41.5721C85.0444 42.4811 84.6991 43.353 84.0846 43.9958C83.47 44.6386 82.6365 44.9997 81.7674 44.9997Z" fill="#2A60F9"/>
<path d="M14.3366 45.0018C10.5343 45.0018 6.88771 43.4219 4.19908 40.6096C1.51045 37.7974 0 33.9832 0 30.0061V3.44224C0 2.53319 0.345245 1.66136 0.959788 1.01856C1.57433 0.375766 2.40783 0.0146484 3.27693 0.0146484C4.14603 0.0146484 4.97952 0.375766 5.59407 1.01856C6.20861 1.66136 6.55386 2.53319 6.55386 3.44224V30.0061C6.55386 32.1651 7.37382 34.2356 8.83337 35.7623C10.2929 37.2889 12.2725 38.1466 14.3366 38.1466C15.2057 38.1466 16.0392 38.5077 16.6537 39.1505C17.2683 39.7933 17.6135 40.6651 17.6135 41.5742C17.6135 42.4833 17.2683 43.3551 16.6537 43.9979C16.0392 44.6407 15.2057 45.0018 14.3366 45.0018Z" fill="#2A60F9"/>
<path d="M115.664 15.0088C113.427 15.0067 111.22 15.5521 109.221 16.6016C107.221 17.6511 105.484 19.1754 104.149 21.0527C102.813 22.93 101.916 25.1081 101.53 27.4128C101.143 29.7175 101.277 32.0849 101.922 34.3256C102.567 36.5663 103.704 38.6181 105.242 40.3169C106.781 42.0157 108.678 43.3144 110.782 44.109C112.886 44.9037 115.139 45.1722 117.36 44.8932C119.581 44.6143 121.709 43.7955 123.573 42.5024C123.791 43.2955 124.274 43.98 124.936 44.4301C125.597 44.8803 126.391 45.0659 127.172 44.9528C127.954 44.8398 128.67 44.4357 129.189 43.8148C129.709 43.1938 129.997 42.3977 130 41.5726V30.0045C130 26.0274 128.49 22.2132 125.801 19.4009C123.112 16.5887 119.466 15.0088 115.664 15.0088ZM115.664 38.145C114.124 38.145 112.62 37.6676 111.34 36.7731C110.06 35.8786 109.062 34.6073 108.473 33.1198C107.884 31.6323 107.73 29.9955 108.03 28.4164C108.331 26.8373 109.072 25.3867 110.16 24.2483C111.249 23.1098 112.636 22.3345 114.145 22.0204C115.655 21.7063 117.22 21.8675 118.642 22.4836C120.064 23.0998 121.28 24.1432 122.135 25.4819C122.99 26.8206 123.446 28.3945 123.446 30.0045C123.446 32.1635 122.626 34.2341 121.167 35.7607C119.707 37.2874 117.728 38.145 115.664 38.145Z" fill="#2A60F9"/>
<path fill-rule="evenodd" clip-rule="evenodd" d="M34.8131 37.8403C33.3573 38.2663 31.8144 38.2396 30.3729 37.7634C28.9314 37.2873 27.6536 36.3823 26.6957 35.1591C25.7378 33.9359 25.1412 32.4473 24.9788 30.8753C24.8164 29.3033 25.0953 27.7158 25.7812 26.3067C26.4672 24.8977 27.5307 23.7282 28.8417 22.9409C30.1527 22.1537 31.6545 21.7828 33.1637 21.8737C34.6729 21.9645 36.1241 22.5132 37.3401 23.4525C38.5561 24.3919 39.4843 25.6813 40.0112 27.1634C40.5473 27.2742 41.1004 27.2566 41.6292 27.112C42.645 26.8206 43.3823 26.1137 44.6071 23.046C44.7218 22.7589 44.8406 22.4762 44.9675 22.1891C43.4756 19.6307 41.2849 17.5986 38.6783 16.3549C36.0717 15.1112 33.1685 14.7129 30.3434 15.2114C27.5183 15.7099 24.9008 17.0824 22.8285 19.1517C20.7562 21.2211 19.3242 23.8924 18.7172 26.8211C18.1102 29.7499 18.356 32.8017 19.423 35.5829C20.49 38.3641 22.3292 40.7471 24.7034 42.4245C27.0775 44.102 29.8777 44.9969 32.7427 44.9939C35.6078 44.9909 38.4062 44.09 40.7772 42.4076C38.6601 41.0787 36.6637 39.5499 34.8131 37.8403Z" fill="#2A60F9"/>
<path fill-rule="evenodd" clip-rule="evenodd" d="M60.9309 15.0088C64.7332 15.0088 68.3797 16.5887 71.0684 19.4009C73.757 22.2132 75.2675 26.0274 75.2675 30.0045C75.2675 33.9816 73.757 37.7958 71.0684 40.6081C68.3797 43.4203 64.7332 45.0002 60.9309 45.0002H60.6851C54.0084 45.0002 48.8062 43.0593 43.5058 40.0859C38.6354 37.3738 34.2853 32.8023 33.1466 31.1656C33.0726 31.0689 33.0068 30.9657 32.95 30.8571L32.9254 30.8314L32.9008 30.8057C32.792 30.5627 32.7334 30.2985 32.7288 30.0302C32.726 29.7914 32.7688 29.5544 32.8546 29.333C32.9403 29.1116 33.0673 28.9104 33.2282 28.7409C33.3891 28.5714 33.5807 28.4371 33.7917 28.3458C34.0027 28.2545 34.229 28.2081 34.4573 28.2093C34.9146 28.211 35.354 28.3949 35.6862 28.7234C37.2919 30.0088 39.7824 31.1785 42.5063 30.403C45.2303 29.6275 46.4468 27.3524 47.6306 24.3533C48.7086 21.5894 50.5496 19.2243 52.9186 17.5599C55.2876 15.8955 58.0771 15.0074 60.9309 15.0088ZM60.1895 21.7312C59.6725 21.7288 59.1754 21.939 58.8053 22.3165C58.4352 22.694 58.2218 23.2086 58.211 23.7492V36.2084C58.2078 36.4802 58.2558 36.75 58.3522 37.0023C58.4487 37.2547 58.5917 37.4847 58.7731 37.6793C59.1395 38.0722 59.6402 38.2967 60.1649 38.3036C60.6896 38.3104 61.1954 38.0989 61.5711 37.7156C61.9467 37.3323 62.1614 36.8087 62.1679 36.2598V23.8006C62.1658 23.2524 61.9566 22.7274 61.5861 22.3398C61.2155 21.9522 60.7135 21.7334 60.1895 21.7312ZM65.875 24.5761C65.3587 24.5737 64.8622 24.7833 64.4922 25.1599C64.1222 25.5365 63.9083 26.0499 63.8965 26.5898V33.3507C63.89 33.8995 64.0922 34.4286 64.4586 34.8215C64.825 35.2144 65.3257 35.439 65.8504 35.4458C66.3751 35.4526 66.8809 35.2411 67.2565 34.8579C67.6322 34.4746 67.8469 33.9509 67.8534 33.4021V26.6412C67.8512 26.0934 67.642 25.5688 67.2713 25.1819C66.9006 24.795 66.3986 24.5772 65.875 24.5761ZM54.504 25.6086C53.9796 25.6097 53.477 25.8281 53.1062 26.216C52.7354 26.6038 52.5266 27.1295 52.5255 27.678V32.331C52.5255 32.8798 52.734 33.4062 53.105 33.7943C53.476 34.1824 53.9793 34.4004 54.504 34.4004C55.0287 34.4004 55.5319 34.1824 55.903 33.7943C56.274 33.4062 56.4824 32.8798 56.4824 32.331V27.678C56.4813 27.1295 56.2726 26.6038 55.9018 26.216C55.531 25.8281 55.0284 25.6097 54.504 25.6086Z" fill="#2A60F9"/>
</g>
<defs>
<clipPath id="clip0_1_489">
<rect width="130" height="45" fill="white"/>
</clipPath>
</defs>
</svg>
